<svg xmlns="http://www.w3.org/2000/svg" xmlns:xlink="http://www.w3.org/1999/xlink" width="510" zoomAndPan="magnify" viewBox="0 0 382.5 131.249995" height="175" preserveAspectRatio="xMidYMid meet" version="1.2"><defs/><g id="e83976343a"><g style="fill:#ffffff;fill-opacity:1;"><g transform="translate(6.935778, 92.415525)"><path style="stroke:none" d="M 4.578125 -38.1875 L 13.640625 -38.1875 L 23.6875 -22.046875 L 33.71875 -38.1875 L 42.78125 -38.1875 L 42.78125 0 L 34.421875 0 L 34.421875 -24.9375 L 23.6875 -8.625 L 23.46875 -8.625 L 12.828125 -24.765625 L 12.828125 0 L 4.578125 0 Z M 4.578125 -38.1875 "/></g></g><g style="fill:#ffffff;fill-opacity:1;"><g transform="translate(54.289973, 92.415525)"><path style="stroke:none" d="M 18.0625 0.65625 C 15.800781 0.65625 13.707031 0.265625 11.78125 -0.515625 C 9.851562 -1.296875 8.1875 -2.367188 6.78125 -3.734375 C 5.382812 -5.097656 4.285156 -6.695312 3.484375 -8.53125 C 2.691406 -10.375 2.296875 -12.347656 2.296875 -14.453125 L 2.296875 -14.5625 C 2.296875 -16.675781 2.691406 -18.648438 3.484375 -20.484375 C 4.285156 -22.328125 5.394531 -23.9375 6.8125 -25.3125 C 8.238281 -26.695312 9.914062 -27.789062 11.84375 -28.59375 C 13.769531 -29.394531 15.878906 -29.796875 18.171875 -29.796875 C 20.421875 -29.796875 22.507812 -29.398438 24.4375 -28.609375 C 26.363281 -27.828125 28.023438 -26.753906 29.421875 -25.390625 C 30.828125 -24.035156 31.929688 -22.4375 32.734375 -20.59375 C 33.535156 -18.757812 33.9375 -16.785156 33.9375 -14.671875 L 33.9375 -14.5625 C 33.9375 -12.457031 33.535156 -10.484375 32.734375 -8.640625 C 31.929688 -6.804688 30.820312 -5.195312 29.40625 -3.8125 C 27.988281 -2.4375 26.316406 -1.347656 24.390625 -0.546875 C 22.460938 0.253906 20.351562 0.65625 18.0625 0.65625 Z M 18.171875 -6.5 C 19.367188 -6.5 20.429688 -6.707031 21.359375 -7.125 C 22.285156 -7.539062 23.078125 -8.113281 23.734375 -8.84375 C 24.390625 -9.570312 24.890625 -10.414062 25.234375 -11.375 C 25.578125 -12.34375 25.75 -13.367188 25.75 -14.453125 L 25.75 -14.5625 C 25.75 -15.65625 25.566406 -16.679688 25.203125 -17.640625 C 24.835938 -18.609375 24.3125 -19.460938 23.625 -20.203125 C 22.9375 -20.953125 22.117188 -21.546875 21.171875 -21.984375 C 20.222656 -22.421875 19.1875 -22.640625 18.0625 -22.640625 C 16.863281 -22.640625 15.800781 -22.429688 14.875 -22.015625 C 13.945312 -21.597656 13.15625 -21.023438 12.5 -20.296875 C 11.84375 -19.566406 11.335938 -18.71875 10.984375 -17.75 C 10.640625 -16.789062 10.46875 -15.765625 10.46875 -14.671875 L 10.46875 -14.5625 C 10.46875 -13.476562 10.648438 -12.453125 11.015625 -11.484375 C 11.378906 -10.523438 11.90625 -9.671875 12.59375 -8.921875 C 13.289062 -8.171875 14.101562 -7.578125 15.03125 -7.140625 C 15.957031 -6.710938 17.003906 -6.5 18.171875 -6.5 Z M 18.171875 -6.5 "/></g></g><g style="fill:#ffffff;fill-opacity:1;"><g transform="translate(88.877866, 92.415525)"><path style="stroke:none" d="M 22.921875 -29.25 L 31.53125 -29.25 L 20.296875 0.703125 C 19.753906 2.203125 19.171875 3.46875 18.546875 4.5 C 17.929688 5.539062 17.25 6.382812 16.5 7.03125 C 15.757812 7.6875 14.914062 8.160156 13.96875 8.453125 C 13.019531 8.742188 11.925781 8.890625 10.6875 8.890625 C 9.164062 8.890625 7.820312 8.707031 6.65625 8.34375 C 5.488281 7.976562 4.378906 7.488281 3.328125 6.875 L 6.109375 0.875 C 6.648438 1.195312 7.238281 1.46875 7.875 1.6875 C 8.519531 1.90625 9.113281 2.015625 9.65625 2.015625 C 10.382812 2.015625 10.957031 1.878906 11.375 1.609375 C 11.789062 1.335938 12.179688 0.835938 12.546875 0.109375 L 1.09375 -29.25 L 9.875 -29.25 L 16.53125 -9.328125 Z M 22.921875 -29.25 "/></g></g><g style="fill:#ffffff;fill-opacity:1;"><g transform="translate(119.974206, 92.415525)"><path style="stroke:none" d="M 18.0625 0.65625 C 15.800781 0.65625 13.707031 0.265625 11.78125 -0.515625 C 9.851562 -1.296875 8.1875 -2.367188 6.78125 -3.734375 C 5.382812 -5.097656 4.285156 -6.695312 3.484375 -8.53125 C 2.691406 -10.375 2.296875 -12.347656 2.296875 -14.453125 L 2.296875 -14.5625 C 2.296875 -16.675781 2.691406 -18.648438 3.484375 -20.484375 C 4.285156 -22.328125 5.394531 -23.9375 6.8125 -25.3125 C 8.238281 -26.695312 9.914062 -27.789062 11.84375 -28.59375 C 13.769531 -29.394531 15.878906 -29.796875 18.171875 -29.796875 C 20.421875 -29.796875 22.507812 -29.398438 24.4375 -28.609375 C 26.363281 -27.828125 28.023438 -26.753906 29.421875 -25.390625 C 30.828125 -24.035156 31.929688 -22.4375 32.734375 -20.59375 C 33.535156 -18.757812 33.9375 -16.785156 33.9375 -14.671875 L 33.9375 -14.5625 C 33.9375 -12.457031 33.535156 -10.484375 32.734375 -8.640625 C 31.929688 -6.804688 30.820312 -5.195312 29.40625 -3.8125 C 27.988281 -2.4375 26.316406 -1.347656 24.390625 -0.546875 C 22.460938 0.253906 20.351562 0.65625 18.0625 0.65625 Z M 18.171875 -6.5 C 19.367188 -6.5 20.429688 -6.707031 21.359375 -7.125 C 22.285156 -7.539062 23.078125 -8.113281 23.734375 -8.84375 C 24.390625 -9.570312 24.890625 -10.414062 25.234375 -11.375 C 25.578125 -12.34375 25.75 -13.367188 25.75 -14.453125 L 25.75 -14.5625 C 25.75 -15.65625 25.566406 -16.679688 25.203125 -17.640625 C 24.835938 -18.609375 24.3125 -19.460938 23.625 -20.203125 C 22.9375 -20.953125 22.117188 -21.546875 21.171875 -21.984375 C 20.222656 -22.421875 19.1875 -22.640625 18.0625 -22.640625 C 16.863281 -22.640625 15.800781 -22.429688 14.875 -22.015625 C 13.945312 -21.597656 13.15625 -21.023438 12.5 -20.296875 C 11.84375 -19.566406 11.335938 -18.71875 10.984375 -17.75 C 10.640625 -16.789062 10.46875 -15.765625 10.46875 -14.671875 L 10.46875 -14.5625 C 10.46875 -13.476562 10.648438 -12.453125 11.015625 -11.484375 C 11.378906 -10.523438 11.90625 -9.671875 12.59375 -8.921875 C 13.289062 -8.171875 14.101562 -7.578125 15.03125 -7.140625 C 15.957031 -6.710938 17.003906 -6.5 18.171875 -6.5 Z M 18.171875 -6.5 "/></g></g><g style="fill:#ffffff;fill-opacity:1;"><g transform="translate(156.19907, 92.415525)"><path style="stroke:none" d=""/></g></g><g style="fill:#ffffff;fill-opacity:1;"><g transform="translate(172.565731, 92.415525)"><path style="stroke:none" d="M 4.578125 -38.1875 L 33.671875 -38.1875 L 33.671875 -30.5625 L 12.984375 -30.5625 L 12.984375 -22.421875 L 31.203125 -22.421875 L 31.203125 -14.78125 L 12.984375 -14.78125 L 12.984375 0 L 4.578125 0 Z M 4.578125 -38.1875 "/></g></g><g style="fill:#ffffff;fill-opacity:1;"><g transform="translate(206.990005, 92.415525)"><path style="stroke:none" d="M 12 0.546875 C 10.625 0.546875 9.328125 0.359375 8.109375 -0.015625 C 6.890625 -0.398438 5.820312 -0.972656 4.90625 -1.734375 C 4 -2.503906 3.28125 -3.441406 2.75 -4.546875 C 2.226562 -5.660156 1.96875 -6.945312 1.96875 -8.40625 L 1.96875 -8.515625 C 1.96875 -10.109375 2.253906 -11.488281 2.828125 -12.65625 C 3.410156 -13.820312 4.222656 -14.785156 5.265625 -15.546875 C 6.304688 -16.316406 7.539062 -16.890625 8.96875 -17.265625 C 10.40625 -17.648438 12 -17.84375 13.75 -17.84375 C 15.238281 -17.84375 16.535156 -17.734375 17.640625 -17.515625 C 18.753906 -17.296875 19.835938 -17.003906 20.890625 -16.640625 L 20.890625 -17.125 C 20.890625 -18.875 20.363281 -20.203125 19.3125 -21.109375 C 18.257812 -22.023438 16.695312 -22.484375 14.625 -22.484375 C 13.019531 -22.484375 11.609375 -22.34375 10.390625 -22.0625 C 9.171875 -21.789062 7.890625 -21.398438 6.546875 -20.890625 L 4.46875 -27.234375 C 6.070312 -27.921875 7.742188 -28.484375 9.484375 -28.921875 C 11.234375 -29.359375 13.347656 -29.578125 15.828125 -29.578125 C 18.117188 -29.578125 20.070312 -29.289062 21.6875 -28.71875 C 23.300781 -28.15625 24.640625 -27.347656 25.703125 -26.296875 C 26.785156 -25.203125 27.582031 -23.863281 28.09375 -22.28125 C 28.601562 -20.707031 28.859375 -18.9375 28.859375 -16.96875 L 28.859375 0 L 20.84375 0 L 20.84375 -3.171875 C 19.820312 -2.035156 18.601562 -1.128906 17.1875 -0.453125 C 15.769531 0.210938 14.039062 0.546875 12 0.546875 Z M 14.515625 -5.1875 C 16.472656 -5.1875 18.039062 -5.65625 19.21875 -6.59375 C 20.40625 -7.539062 21 -8.78125 21 -10.3125 L 21 -11.78125 C 20.28125 -12.113281 19.472656 -12.378906 18.578125 -12.578125 C 17.679688 -12.773438 16.726562 -12.875 15.71875 -12.875 C 13.9375 -12.875 12.535156 -12.523438 11.515625 -11.828125 C 10.492188 -11.140625 9.984375 -10.144531 9.984375 -8.84375 L 9.984375 -8.734375 C 9.984375 -7.597656 10.398438 -6.722656 11.234375 -6.109375 C 12.078125 -5.492188 13.171875 -5.1875 14.515625 -5.1875 Z M 14.515625 -5.1875 "/></g></g><g style="fill:#ffffff;fill-opacity:1;"><g transform="translate(239.286871, 92.415525)"><path style="stroke:none" d="M 13.96875 0.546875 C 11.894531 0.546875 9.773438 0.191406 7.609375 -0.515625 C 5.441406 -1.222656 3.378906 -2.34375 1.421875 -3.875 L 4.96875 -9.328125 C 6.5625 -8.160156 8.148438 -7.285156 9.734375 -6.703125 C 11.316406 -6.128906 12.800781 -5.84375 14.1875 -5.84375 C 15.382812 -5.84375 16.265625 -6.039062 16.828125 -6.4375 C 17.390625 -6.832031 17.671875 -7.359375 17.671875 -8.015625 L 17.671875 -8.125 C 17.671875 -8.5625 17.507812 -8.941406 17.1875 -9.265625 C 16.863281 -9.597656 16.414062 -9.878906 15.84375 -10.109375 C 15.28125 -10.347656 14.632812 -10.578125 13.90625 -10.796875 C 13.1875 -11.015625 12.425781 -11.253906 11.625 -11.515625 C 10.601562 -11.804688 9.570312 -12.160156 8.53125 -12.578125 C 7.5 -12.992188 6.5625 -13.535156 5.71875 -14.203125 C 4.882812 -14.878906 4.203125 -15.707031 3.671875 -16.6875 C 3.148438 -17.675781 2.890625 -18.878906 2.890625 -20.296875 L 2.890625 -20.40625 C 2.890625 -21.894531 3.171875 -23.210938 3.734375 -24.359375 C 4.296875 -25.503906 5.054688 -26.476562 6.015625 -27.28125 C 6.984375 -28.082031 8.113281 -28.679688 9.40625 -29.078125 C 10.695312 -29.484375 12.09375 -29.6875 13.59375 -29.6875 C 15.445312 -29.6875 17.328125 -29.382812 19.234375 -28.78125 C 21.140625 -28.175781 22.894531 -27.347656 24.5 -26.296875 L 21.328125 -20.5625 C 19.878906 -21.40625 18.460938 -22.070312 17.078125 -22.5625 C 15.691406 -23.050781 14.472656 -23.296875 13.421875 -23.296875 C 12.398438 -23.296875 11.632812 -23.101562 11.125 -22.71875 C 10.613281 -22.34375 10.359375 -21.863281 10.359375 -21.28125 L 10.359375 -21.171875 C 10.359375 -20.765625 10.519531 -20.40625 10.84375 -20.09375 C 11.175781 -19.789062 11.613281 -19.503906 12.15625 -19.234375 C 12.707031 -18.960938 13.335938 -18.695312 14.046875 -18.4375 C 14.753906 -18.1875 15.507812 -17.929688 16.3125 -17.671875 C 17.332031 -17.347656 18.367188 -16.957031 19.421875 -16.5 C 20.472656 -16.050781 21.414062 -15.5 22.25 -14.84375 C 23.09375 -14.1875 23.785156 -13.382812 24.328125 -12.4375 C 24.878906 -11.488281 25.15625 -10.34375 25.15625 -9 L 25.15625 -8.890625 C 25.15625 -7.253906 24.875 -5.84375 24.3125 -4.65625 C 23.75 -3.476562 22.957031 -2.503906 21.9375 -1.734375 C 20.914062 -0.972656 19.722656 -0.398438 18.359375 -0.015625 C 16.992188 0.359375 15.53125 0.546875 13.96875 0.546875 Z M 13.96875 0.546875 "/></g></g><g style="fill:#ffffff;fill-opacity:1;"><g transform="translate(266.673738, 92.415525)"><path style="stroke:none" d="M 18.0625 0.65625 C 15.800781 0.65625 13.707031 0.265625 11.78125 -0.515625 C 9.851562 -1.296875 8.1875 -2.367188 6.78125 -3.734375 C 5.382812 -5.097656 4.285156 -6.695312 3.484375 -8.53125 C 2.691406 -10.375 2.296875 -12.347656 2.296875 -14.453125 L 2.296875 -14.5625 C 2.296875 -16.675781 2.691406 -18.648438 3.484375 -20.484375 C 4.285156 -22.328125 5.394531 -23.9375 6.8125 -25.3125 C 8.238281 -26.695312 9.914062 -27.789062 11.84375 -28.59375 C 13.769531 -29.394531 15.878906 -29.796875 18.171875 -29.796875 C 20.421875 -29.796875 22.507812 -29.398438 24.4375 -28.609375 C 26.363281 -27.828125 28.023438 -26.753906 29.421875 -25.390625 C 30.828125 -24.035156 31.929688 -22.4375 32.734375 -20.59375 C 33.535156 -18.757812 33.9375 -16.785156 33.9375 -14.671875 L 33.9375 -14.5625 C 33.9375 -12.457031 33.535156 -10.484375 32.734375 -8.640625 C 31.929688 -6.804688 30.820312 -5.195312 29.40625 -3.8125 C 27.988281 -2.4375 26.316406 -1.347656 24.390625 -0.546875 C 22.460938 0.253906 20.351562 0.65625 18.0625 0.65625 Z M 18.171875 -6.5 C 19.367188 -6.5 20.429688 -6.707031 21.359375 -7.125 C 22.285156 -7.539062 23.078125 -8.113281 23.734375 -8.84375 C 24.390625 -9.570312 24.890625 -10.414062 25.234375 -11.375 C 25.578125 -12.34375 25.75 -13.367188 25.75 -14.453125 L 25.75 -14.5625 C 25.75 -15.65625 25.566406 -16.679688 25.203125 -17.640625 C 24.835938 -18.609375 24.3125 -19.460938 23.625 -20.203125 C 22.9375 -20.953125 22.117188 -21.546875 21.171875 -21.984375 C 20.222656 -22.421875 19.1875 -22.640625 18.0625 -22.640625 C 16.863281 -22.640625 15.800781 -22.429688 14.875 -22.015625 C 13.945312 -21.597656 13.15625 -21.023438 12.5 -20.296875 C 11.84375 -19.566406 11.335938 -18.71875 10.984375 -17.75 C 10.640625 -16.789062 10.46875 -15.765625 10.46875 -14.671875 L 10.46875 -14.5625 C 10.46875 -13.476562 10.648438 -12.453125 11.015625 -11.484375 C 11.378906 -10.523438 11.90625 -9.671875 12.59375 -8.921875 C 13.289062 -8.171875 14.101562 -7.578125 15.03125 -7.140625 C 15.957031 -6.710938 17.003906 -6.5 18.171875 -6.5 Z M 18.171875 -6.5 "/></g></g><g style="fill:#ffffff;fill-opacity:1;"><g transform="translate(302.89859, 92.415525)"><path style="stroke:none" d="M 3.703125 -29.25 L 12 -29.25 L 12 -23.359375 C 12.84375 -25.359375 13.988281 -26.957031 15.4375 -28.15625 C 16.894531 -29.351562 18.859375 -29.898438 21.328125 -29.796875 L 21.328125 -21.109375 L 20.890625 -21.109375 C 18.128906 -21.109375 15.957031 -20.269531 14.375 -18.59375 C 12.789062 -16.925781 12 -14.328125 12 -10.796875 L 12 0 L 3.703125 0 Z M 3.703125 -29.25 "/></g></g><g style="fill:#ffffff;fill-opacity:1;"><g transform="translate(324.884315, 92.415525)"><path style="stroke:none" d="M 17.5625 0.65625 C 15.382812 0.65625 13.359375 0.289062 11.484375 -0.4375 C 9.609375 -1.164062 7.988281 -2.203125 6.625 -3.546875 C 5.257812 -4.890625 4.195312 -6.476562 3.4375 -8.3125 C 2.675781 -10.15625 2.296875 -12.203125 2.296875 -14.453125 L 2.296875 -14.5625 C 2.296875 -16.632812 2.648438 -18.597656 3.359375 -20.453125 C 4.066406 -22.316406 5.054688 -23.9375 6.328125 -25.3125 C 7.597656 -26.695312 9.113281 -27.789062 10.875 -28.59375 C 12.644531 -29.394531 14.601562 -29.796875 16.75 -29.796875 C 19.1875 -29.796875 21.296875 -29.359375 23.078125 -28.484375 C 24.859375 -27.609375 26.335938 -26.429688 27.515625 -24.953125 C 28.703125 -23.484375 29.578125 -21.796875 30.140625 -19.890625 C 30.703125 -17.984375 30.984375 -15.988281 30.984375 -13.90625 C 30.984375 -13.582031 30.972656 -13.238281 30.953125 -12.875 C 30.941406 -12.507812 30.914062 -12.128906 30.875 -11.734375 L 10.53125 -11.734375 C 10.925781 -9.835938 11.75 -8.40625 13 -7.4375 C 14.257812 -6.476562 15.816406 -6 17.671875 -6 C 19.054688 -6 20.296875 -6.234375 21.390625 -6.703125 C 22.484375 -7.179688 23.609375 -7.945312 24.765625 -9 L 29.515625 -4.796875 C 28.128906 -3.085938 26.453125 -1.75 24.484375 -0.78125 C 22.523438 0.175781 20.21875 0.65625 17.5625 0.65625 Z M 22.921875 -16.921875 C 22.660156 -18.773438 22.003906 -20.273438 20.953125 -21.421875 C 19.898438 -22.566406 18.5 -23.140625 16.75 -23.140625 C 15 -23.140625 13.585938 -22.570312 12.515625 -21.4375 C 11.441406 -20.3125 10.742188 -18.804688 10.421875 -16.921875 Z M 22.921875 -16.921875 "/></g></g><g style="fill:#ffffff;fill-opacity:1;"><g transform="translate(357.781199, 92.415525)"><path style="stroke:none" d="M 3.390625 -8.734375 L 12.21875 -8.734375 L 12.21875 0 L 3.390625 0 Z M 3.390625 -8.734375 "/></g></g></g></svg>